<svg width="24" height="24" viewBox="0 0 24 24" fill="none" xmlns="http://www.w3.org/2000/svg">
<circle cx="12" cy="12" r="11" fill="url(#paint0_linear)"/>
<path fill-rule="evenodd" clip-rule="evenodd" d="M9.90937 17.0074C10.5156 17.6691 11.3968 18 12.5529 18C13.6667 18 14.5196 17.6838 15.1118 17.0515C15.5645 16.5568 15.8442 15.8729 15.9508 15H13.5079C13.4627 15.1269 13.4052 15.2372 13.3353 15.3309C13.1521 15.5809 12.8842 15.7059 12.5317 15.7059C12.1793 15.7059 11.9114 15.5588 11.7281 15.2647C11.5448 14.9559 11.4532 14.4706 11.4532 13.8088V10.1912C11.4532 9.52941 11.5448 9.05147 11.7281 8.75735C11.9114 8.44853 12.1863 8.29412 12.5529 8.29412C12.8912 8.29412 13.1521 8.42647 13.3353 8.69118C13.404 8.77811 13.4607 8.88105 13.5055 9H15.9564C15.8543 8.12459 15.5727 7.44077 15.1118 6.94853C14.5196 6.31618 13.6667 6 12.5529 6C11.3968 6 10.5156 6.33088 9.90937 6.99265C9.30312 7.65441 9 8.72794 9 10.2132V13.7868C9 15.2721 9.30312 16.3456 9.90937 17.0074Z" fill="white"/>
<rect x="8" y="10" width="7" height="1.5" fill="white"/>
<rect x="8" y="12.5" width="6" height="1.5" fill="white"/>
<defs>
<linearGradient id="paint0_linear" x1="3" y1="3" x2="20" y2="21" gradientUnits="userSpaceOnUse">
<stop stop-color="#1442A2"/>
<stop offset="1" stop-color="#4674D4"/>
</linearGradient>
</defs>
</svg>
