<svg width="24" height="24" viewBox="0 0 24 24" fill="none" xmlns="http://www.w3.org/2000/svg">
<circle cx="12" cy="12" r="11" fill="url(#paint0_linear)"/>
<path fill-rule="evenodd" clip-rule="evenodd" d="M11 4H13V6.09488C13.6982 6.23162 14.2923 6.51617 14.7821 6.94853C15.4985 7.58088 15.8567 8.40441 15.8567 9.41912V9.6397H13.1821V9.50735C13.1821 9.05147 13.0706 8.70588 12.8478 8.47059C12.6249 8.23529 12.3224 8.11765 11.9403 8.11765C11.5741 8.11765 11.2796 8.21323 11.0567 8.40441C10.8498 8.59559 10.7463 8.86765 10.7463 9.22059C10.7463 9.52941 10.8259 9.78676 10.9851 9.99265C11.1443 10.1985 11.4468 10.3897 11.8925 10.5662L13.4448 11.1838C14.3522 11.5515 15.005 12 15.403 12.5294C15.801 13.0441 16 13.7206 16 14.5588C16 15.5735 15.6338 16.4044 14.9015 17.0515C14.395 17.4985 13.7612 17.7876 13 17.9186V20H11V17.9244C10.2282 17.7984 9.58642 17.5148 9.07463 17.0735C8.35821 16.4412 8 15.5735 8 14.4706V14.3382H10.6746V14.4706C10.6746 14.9118 10.794 15.2574 11.0328 15.5074C11.2716 15.7426 11.606 15.8603 12.0358 15.8603C12.4498 15.8603 12.7602 15.7574 12.9672 15.5515C13.19 15.3309 13.3015 15.0147 13.3015 14.6029C13.3015 14.2941 13.198 14.0294 12.991 13.8088C12.8 13.5735 12.4896 13.3676 12.0597 13.1912L10.6269 12.6176C9.65572 12.2353 8.98706 11.7868 8.6209 11.2721C8.25473 10.7574 8.07164 10.1103 8.07164 9.33088C8.07164 8.375 8.42985 7.58088 9.14627 6.94853C9.65277 6.50146 10.2707 6.21243 11 6.08143V4Z" fill="white"/>
<defs>
<linearGradient id="paint0_linear" x1="3" y1="3" x2="20" y2="21" gradientUnits="userSpaceOnUse">
<stop stop-color="#1442A2"/>
<stop offset="1" stop-color="#4674D4"/>
</linearGradient>
</defs>
</svg>
